<svg width="100%" viewBox="0 0 860 960" preserveAspectRatio="xMinYMin meet" xmlns="http://www.w3.org/2000/svg">
<defs>
<style>
@import url('https://fonts.googleapis.com/css2?family=Fira+Code:wght@300;400;500&amp;display=swap');

@keyframes blink{0%,100%{opacity:1}50%{opacity:0}}
@keyframes floatOrb1{0%,100%{transform:translate(0,0) scale(1)}33%{transform:translate(18px,-24px) scale(1.06)}66%{transform:translate(-12px,14px) scale(.95)}}
@keyframes floatOrb2{0%,100%{transform:translate(0,0) scale(1)}33%{transform:translate(-20px,16px) scale(1.04)}66%{transform:translate(14px,-10px) scale(.97)}}
@keyframes floatOrb3{0%,100%{transform:translate(0,0)}50%{transform:translate(10px,-18px)}}
@keyframes glitchCore{0%,88%,100%{transform:translate(0,0) skew(0);opacity:1}89%{transform:translate(-2px,1px) skew(7deg);opacity:.7}92%{transform:translate(0,0);opacity:1}95%{transform:translate(3px,-1px) skew(-5deg);opacity:.6}97%{transform:translate(0,0);opacity:1}}
@keyframes glitchR{0%,88%,100%{opacity:0}89%{opacity:.7;transform:translate(-4px,-2px)}92%{opacity:0}95%{opacity:.7;transform:translate(5px,2px)}97%{opacity:0}}
@keyframes glitchC{0%,88%,100%{opacity:0}89%{opacity:.7;transform:translate(4px,2px)}92%{opacity:0}95%{opacity:.7;transform:translate(-5px,-2px)}97%{opacity:0}}
@keyframes shimmer{0%{stop-opacity:.6}50%{stop-opacity:1}100%{stop-opacity:.6}}
@keyframes barGrow{from{height:0;y:40}to{}}
@keyframes barPulse{0%,100%{opacity:.6}50%{opacity:1}}
@keyframes particleUp{0%{transform:translateY(0);opacity:.9}100%{transform:translateY(-300px);opacity:0}}
@keyframes spinRing{from{transform:rotate(0deg)}to{transform:rotate(360deg)}}
@keyframes opossum{0%,100%{transform:translateY(0) rotate(-3deg)}50%{transform:translateY(-8px) rotate(3deg)}}
@keyframes tailWag{0%,100%{transform:rotate(-10deg)}50%{transform:rotate(15deg)}}
@keyframes eyeBlink{0%,90%,100%{transform:scaleY(1)}95%{transform:scaleY(.1)}}
@keyframes rainDrop{from{transform:translateY(0)}to{transform:translateY(1800px)}}
@keyframes fadeSlide{from{opacity:0;transform:translateY(8px)}to{opacity:1;transform:translateY(0)}}
@keyframes statCount{from{opacity:0}to{opacity:1}}

:root{
  --bg:      #0d1117;
  --panel:   rgba(13,27,42,.85);
  --glass:   rgba(255,255,255,.04);
  --brd:     rgba(63,169,245,.25);
  --brd2:    rgba(92,88,237,.3);
  --txt:     #e2e8f0;
  --muted:   #8b99ae;
  --acc:     #3FA9F5;
  --cyan:    #56E1E8;
  --purple:  #5C58ED;
  --navy:    #122D70;
}
@media(prefers-color-scheme:light){
  :root{
    --bg:      #f0f6ff;
    --panel:   rgba(255,255,255,.9);
    --glass:   rgba(63,169,245,.06);
    --brd:     rgba(37,99,235,.3);
    --brd2:    rgba(79,70,229,.3);
    --txt:     #0f172a;
    --muted:   #475569;
    --acc:     #1d4ed8;
    --cyan:    #0891b2;
    --purple:  #4f46e5;
    --navy:    #1e3a8a;
  }
  .rain{display:none}
  .title-g1,.title-g2{display:none}
  .title-main{animation:none}
}

.bg{fill:var(--bg)}
.txt{fill:var(--txt)}
.muted{fill:var(--muted)}
.acc{fill:var(--acc)}
.cyan{fill:var(--cyan)}
.purple{fill:var(--purple)}

.glass{fill:var(--glass);stroke:var(--brd);stroke-width:1}
.glass-purple{fill:var(--glass);stroke:var(--brd2);stroke-width:1}

.cursor{animation:blink 1.1s step-end infinite}
.title-main{animation:glitchCore 5s infinite}
.title-g1{opacity:0;animation:glitchR 5s infinite;fill:#93c5fd}
.title-g2{opacity:0;animation:glitchC 5s infinite;fill:#1e40af}

.rain{font-family:monospace;font-size:12px;pointer-events:none}
.col{animation:rainDrop linear infinite}

.opossum-body{animation:opossum 3s ease-in-out infinite;transform-origin:55px 55px}
.opossum-tail{animation:tailWag 2s ease-in-out infinite;transform-origin:70px 80px}
.eye{animation:eyeBlink 4s ease-in-out infinite}

.bar{animation:barPulse 2s ease-in-out infinite}
.particle{animation:particleUp linear infinite}
.ring-spin{animation:spinRing 12s linear infinite;transform-origin:50% 50%}

.stat-num{font-family:monospace;font-weight:700;font-size:26px;fill:var(--txt)}
.stat-lbl{font-family:monospace;font-size:9px;letter-spacing:2px;fill:var(--muted)}
.sec{font-family:monospace;font-size:9px;letter-spacing:2px;fill:var(--muted)}
.tag{fill:var(--glass);stroke:var(--brd);stroke-width:.8}
.tag-txt{font-family:monospace;font-size:10px;fill:var(--acc)}
.tag-purple{fill:var(--glass);stroke:var(--brd2);stroke-width:.8}
.tag-purple-txt{font-family:monospace;font-size:10px;fill:var(--purple)}
.tag-cyan{fill:rgba(86,225,232,.08);stroke:rgba(86,225,232,.35);stroke-width:.8}
.tag-cyan-txt{font-family:monospace;font-size:10px;fill:var(--cyan)}
</style>

<!-- Gradients -->
<radialGradient id="orb1" cx="50%" cy="50%" r="50%">
  <stop offset="0%"   stop-color="#5C58ED" stop-opacity=".7"/>
  <stop offset="100%" stop-color="#5C58ED" stop-opacity="0"/>
</radialGradient>
<radialGradient id="orb2" cx="50%" cy="50%" r="50%">
  <stop offset="0%"   stop-color="#3FA9F5" stop-opacity=".6"/>
  <stop offset="100%" stop-color="#3FA9F5" stop-opacity="0"/>
</radialGradient>
<radialGradient id="orb3" cx="50%" cy="50%" r="50%">
  <stop offset="0%"   stop-color="#56E1E8" stop-opacity=".5"/>
  <stop offset="100%" stop-color="#56E1E8" stop-opacity="0"/>
</radialGradient>

<linearGradient id="topGlow" x1="0" y1="0" x2="860" y2="0" gradientUnits="userSpaceOnUse">
  <stop offset="0"   stop-color="#122D70" stop-opacity="0"/>
  <stop offset=".4"  stop-color="#5C58ED"/>
  <stop offset=".7"  stop-color="#3FA9F5"/>
  <stop offset="1"   stop-color="#56E1E8" stop-opacity="0"/>
  <animateTransform attributeName="gradientTransform" type="translate" values="-200 0;200 0;-200 0" dur="7s" repeatCount="indefinite"/>
</linearGradient>

<linearGradient id="statLine1" x1="0" y1="0" x2="1" y2="0"><stop offset="0" stop-color="#3FA9F5"/><stop offset="1" stop-color="#5C58ED"/></linearGradient>
<linearGradient id="statLine2" x1="0" y1="0" x2="1" y2="0"><stop offset="0" stop-color="#5C58ED"/><stop offset="1" stop-color="#56E1E8"/></linearGradient>
<linearGradient id="statLine3" x1="0" y1="0" x2="1" y2="0"><stop offset="0" stop-color="#56E1E8"/><stop offset="1" stop-color="#3FA9F5"/></linearGradient>

<linearGradient id="barGrad" x1="0" y1="0" x2="0" y2="1">
  <stop offset="0%"   stop-color="#5C58ED"/>
  <stop offset="100%" stop-color="#3FA9F5"/>
</linearGradient>

<clipPath id="rc"><rect width="860" height="960" rx="16"/></clipPath>
<clipPath id="heroClip"><rect x="0" y="0" width="860" height="320" rx="16"/></clipPath>
<clipPath id="avatarClip"><circle cx="75" cy="75" r="52"/></clipPath>
</defs>

<g clip-path="url(#rc)">

<!-- BG -->
<rect width="860" height="960" rx="16" class="bg"/>

<!-- Matrix rain (dark mode only) -->
<g class="rain">
<text x="50"  y="-600" class="col" fill="#3FA9F5" opacity=".12" style="animation-duration:13s;animation-delay:-2s"><tspan x="50"  dy="15">ﾋ</tspan><tspan x="50"  dy="15">1</tspan><tspan x="50"  dy="15">ｴ</tspan><tspan x="50"  dy="15">ﾈ</tspan><tspan x="50"  dy="15">ﾐ</tspan><tspan x="50"  dy="15">ﾇ</tspan><tspan x="50"  dy="15">ﾂ</tspan><tspan x="50"  dy="15">ｵ</tspan><tspan x="50"  dy="15">ﾃ</tspan><tspan x="50"  dy="15">0</tspan><tspan x="50"  dy="15">ﾒ</tspan><tspan x="50"  dy="15">ｾ</tspan><tspan x="50"  dy="15">ﾋ</tspan><tspan x="50"  dy="15">ｱ</tspan><tspan x="50"  dy="15">ﾜ</tspan><tspan x="50"  dy="15">ﾆ</tspan><tspan x="50"  dy="15">ｰ</tspan><tspan x="50"  dy="15">1</tspan><tspan x="50"  dy="15">ｶ</tspan><tspan x="50"  dy="15">ﾜ</tspan><tspan x="50"  dy="15">ｽ</tspan><tspan x="50"  dy="15">ｹ</tspan><tspan x="50"  dy="15">ﾘ</tspan><tspan x="50"  dy="15">ﾑ</tspan><tspan x="50"  dy="15">ﾗ</tspan><tspan x="50"  dy="15">ﾂ</tspan><tspan x="50"  dy="15">ﾋ</tspan><tspan x="50"  dy="15">ﾗ</tspan><tspan x="50"  dy="15">ﾈ</tspan><tspan x="50"  dy="15">ﾏ</tspan></text>
<text x="780" y="-600" class="col" fill="#5C58ED" opacity=".15" style="animation-duration:10s;animation-delay:-5s"><tspan x="780" dy="15">ﾗ</tspan><tspan x="780" dy="15">ｻ</tspan><tspan x="780" dy="15">ﾎ</tspan><tspan x="780" dy="15">ﾋ</tspan><tspan x="780" dy="15">ﾓ</tspan><tspan x="780" dy="15">ﾑ</tspan><tspan x="780" dy="15">ｶ</tspan><tspan x="780" dy="15">ｽ</tspan><tspan x="780" dy="15">ﾆ</tspan><tspan x="780" dy="15">ﾀ</tspan><tspan x="780" dy="15">ﾇ</tspan><tspan x="780" dy="15">ﾏ</tspan><tspan x="780" dy="15">ｻ</tspan><tspan x="780" dy="15">ﾍ</tspan><tspan x="780" dy="15">0</tspan><tspan x="780" dy="15">ｰ</tspan><tspan x="780" dy="15">ﾋ</tspan><tspan x="780" dy="15">ﾊ</tspan><tspan x="780" dy="15">ｴ</tspan><tspan x="780" dy="15">1</tspan><tspan x="780" dy="15">ｾ</tspan><tspan x="780" dy="15">ｼ</tspan><tspan x="780" dy="15">ﾈ</tspan><tspan x="780" dy="15">ﾅ</tspan><tspan x="780" dy="15">ｻ</tspan><tspan x="780" dy="15">ﾜ</tspan><tspan x="780" dy="15">0</tspan><tspan x="780" dy="15">ｾ</tspan><tspan x="780" dy="15">ﾅ</tspan><tspan x="780" dy="15">ｰ</tspan></text>
<text x="420" y="-600" class="col" fill="#56E1E8" opacity=".10" style="animation-duration:16s;animation-delay:-8s"><tspan x="420" dy="15">ｳ</tspan><tspan x="420" dy="15">ﾎ</tspan><tspan x="420" dy="15">ｻ</tspan><tspan x="420" dy="15">0</tspan><tspan x="420" dy="15">0</tspan><tspan x="420" dy="15">ﾑ</tspan><tspan x="420" dy="15">ﾈ</tspan><tspan x="420" dy="15">ﾊ</tspan><tspan x="420" dy="15">ﾒ</tspan><tspan x="420" dy="15">ﾘ</tspan><tspan x="420" dy="15">ﾎ</tspan><tspan x="420" dy="15">ｽ</tspan><tspan x="420" dy="15">ﾜ</tspan><tspan x="420" dy="15">0</tspan><tspan x="420" dy="15">1</tspan><tspan x="420" dy="15">ｹ</tspan><tspan x="420" dy="15">ﾒ</tspan><tspan x="420" dy="15">1</tspan><tspan x="420" dy="15">ﾅ</tspan><tspan x="420" dy="15">ﾃ</tspan><tspan x="420" dy="15">ｴ</tspan><tspan x="420" dy="15">ｶ</tspan><tspan x="420" dy="15">ﾑ</tspan><tspan x="420" dy="15">ﾑ</tspan><tspan x="420" dy="15">ﾐ</tspan><tspan x="420" dy="15">ｵ</tspan><tspan x="420" dy="15">ﾍ</tspan><tspan x="420" dy="15">ﾋ</tspan><tspan x="420" dy="15">ﾂ</tspan><tspan x="420" dy="15">ﾓ</tspan></text>
</g>

<!-- Floating orbs -->
<g style="animation:floatOrb1 9s ease-in-out infinite">
  <ellipse cx="100" cy="180" rx="200" ry="200" fill="url(#orb1)" opacity=".55"/>
</g>
<g style="animation:floatOrb2 11s ease-in-out infinite">
  <ellipse cx="800" cy="120" rx="180" ry="180" fill="url(#orb2)" opacity=".5"/>
</g>
<g style="animation:floatOrb3 8s ease-in-out infinite">
  <ellipse cx="500" cy="800" rx="160" ry="160" fill="url(#orb3)" opacity=".4"/>
</g>

<!-- Particles -->
<circle cx="200" cy="700" r="2" fill="#3FA9F5" opacity=".6" class="particle" style="animation-duration:6s;animation-delay:0s"/>
<circle cx="650" cy="600" r="1.5" fill="#56E1E8" opacity=".5" class="particle" style="animation-duration:8s;animation-delay:-2s"/>
<circle cx="400" cy="850" r="2.5" fill="#5C58ED" opacity=".4" class="particle" style="animation-duration:10s;animation-delay:-4s"/>
<circle cx="750" cy="750" r="1.5" fill="#3FA9F5" opacity=".5" class="particle" style="animation-duration:7s;animation-delay:-6s"/>
<circle cx="120" cy="500" r="2"   fill="#56E1E8" opacity=".4" class="particle" style="animation-duration:9s;animation-delay:-1s"/>

<!-- Spinning rings (right side) -->
<g transform="translate(790,440)">
  <g class="ring-spin"><circle r="40" fill="none" stroke="#5C58ED" stroke-width="1" stroke-dasharray="5 4" opacity=".3"/></g>
  <circle r="28" fill="none" stroke="#3FA9F5" stroke-width=".8" opacity=".2"/>
</g>

<!-- Top glow bar -->
<rect x="0" y="0" width="860" height="3" rx="2" fill="url(#topGlow)"/>

<!-- Border -->
<rect x=".5" y=".5" width="859" height="959" rx="15.5" fill="none" stroke="rgba(63,169,245,.2)" stroke-width="1"/>

<!-- ═══════════════════════════════════
     HERO SECTION
═══════════════════════════════════ -->

<!-- Glass hero card -->
<rect x="24" y="20" width="812" height="210" rx="14" class="glass"/>

<!-- OPOSSUM avatar (left side) -->
<g transform="translate(44,38)">

  <!-- Avatar ring spinner -->
  <g style="animation:spinRing 6s linear infinite;transform-origin:64px 64px">
    <circle cx="64" cy="64" r="60" fill="none" stroke="url(#statLine1)" stroke-width="3" stroke-dasharray="60 140" stroke-linecap="round"/>
  </g>
  <circle cx="64" cy="64" r="56" fill="rgba(13,17,23,.9)" stroke="rgba(63,169,245,.15)" stroke-width="1"/>

  <!-- Opossum body -->
  <g class="opossum-body">
    <!-- body -->
    <ellipse cx="64" cy="72" rx="28" ry="24" fill="#c8c8d0"/>
    <!-- head -->
    <ellipse cx="64" cy="46" rx="22" ry="20" fill="#d8d8e0"/>
    <!-- ears -->
    <ellipse cx="46" cy="30" rx="9" ry="12" fill="#d0a0a8"/>
    <ellipse cx="46" cy="30" rx="5" ry="8"  fill="#f0c0c8"/>
    <ellipse cx="82" cy="30" rx="9" ry="12" fill="#d0a0a8"/>
    <ellipse cx="82" cy="30" rx="5" ry="8"  fill="#f0c0c8"/>
    <!-- face -->
    <ellipse cx="58" cy="50" rx="4.5" ry="5" fill="white"/>
    <ellipse cx="70" cy="50" rx="4.5" ry="5" fill="white"/>
    <g class="eye">
      <circle cx="58" cy="50" r="3" fill="#1a1a2e"/>
      <circle cx="70" cy="50" r="3" fill="#1a1a2e"/>
      <circle cx="59" cy="49" r="1" fill="white"/>
      <circle cx="71" cy="49" r="1" fill="white"/>
    </g>
    <!-- nose -->
    <ellipse cx="64" cy="56" rx="3" ry="2" fill="#e08080"/>
    <!-- mouth -->
    <path d="M61,59 Q64,62 67,59" fill="none" stroke="#999" stroke-width="1.2" stroke-linecap="round"/>
    <!-- arms -->
    <path d="M38,68 Q30,75 34,82" fill="none" stroke="#b8b8c0" stroke-width="6" stroke-linecap="round"/>
    <path d="M90,68 Q98,75 94,82" fill="none" stroke="#b8b8c0" stroke-width="6" stroke-linecap="round"/>
    <!-- belly -->
    <ellipse cx="64" cy="74" rx="16" ry="14" fill="#e8e8f0" opacity=".6"/>
    <!-- legs -->
    <ellipse cx="52" cy="90" rx="8" ry="10" fill="#c0c0c8"/>
    <ellipse cx="76" cy="90" rx="8" ry="10" fill="#c0c0c8"/>
  </g>
  <!-- tail -->
  <path class="opossum-tail" d="M82,94 Q105,100 110,115 Q115,130 100,128" fill="none" stroke="#c8c8d0" stroke-width="5" stroke-linecap="round"/>
  <!-- tiny heart -->
  <text x="52" y="110" font-size="10" opacity=".8">💙</text>
</g>

<!-- Hero text -->
<text x="184" y="66"  font-family="monospace" font-size="9" class="muted" letter-spacing="2">FULL STACK DEVELOPER · she/her</text>

<text x="184" y="100" font-family="monospace" font-size="30" font-weight="700" class="title-g1">Sarahi Cruz Aguirre</text>
<text x="184" y="100" font-family="monospace" font-size="30" font-weight="700" class="title-g2">Sarahi Cruz Aguirre</text>
<text x="184" y="100" font-family="monospace" font-size="30" font-weight="700" class="txt title-main">Sarahi Cruz Aguirre</text>
<text x="510" y="97"  font-family="monospace" font-size="32" fill="#56E1E8" class="cursor">|</text>

<text x="184" y="128" font-family="monospace" font-size="13" fill="#5C58ED">@SarahiCruzAguirre · park02697@gmail.com</text>

<!-- Badge pills -->
<rect x="184" y="142" width="108" height="24" rx="12" fill="rgba(63,169,245,.12)" stroke="rgba(63,169,245,.35)" stroke-width="1"/>
<text x="204" y="158" font-family="monospace" font-size="10" fill="#3FA9F5">⚡ Open to Work</text>

<rect x="300" y="142" width="110" height="24" rx="12" fill="rgba(92,88,237,.12)" stroke="rgba(92,88,237,.35)" stroke-width="1"/>
<text x="318" y="158" font-family="monospace" font-size="10" fill="#5C58ED">🎯 Medellín, CO</text>

<rect x="418" y="142" width="138" height="24" rx="12" fill="rgba(86,225,232,.1)" stroke="rgba(86,225,232,.3)" stroke-width="1"/>
<text x="436" y="158" font-family="monospace" font-size="10" fill="#56E1E8">✨ Building cool stuff</text>

<!-- Spline 3D link note -->
<rect x="184" y="178" width="272" height="36" rx="8" fill="rgba(92,88,237,.08)" stroke="rgba(92,88,237,.25)" stroke-width="1"/>
<text x="196" y="193" font-family="monospace" font-size="9" fill="#8b99ae">🌐 INTERACTIVE 3D SCENE</text>
<text x="196" y="208" font-family="monospace" font-size="9" fill="#5C58ED">orbitalbluestar.spline.design ↗</text>

<!-- ═══════════════════════════════════
     STATS ROW
═══════════════════════════════════ -->

<rect x="24"  y="248" width="254" height="90" rx="12" class="glass"/>
<text x="151" y="285" font-family="monospace" font-size="26" font-weight="700" class="txt" text-anchor="middle">82</text>
<text x="151" y="300" font-family="monospace" font-size="8"  class="muted" text-anchor="middle" letter-spacing="2">CONTRIBUCIONES</text>
<rect x="60" y="320" width="182" height="2" rx="1" fill="url(#statLine1)" opacity=".7"/>

<rect x="294" y="248" width="254" height="90" rx="12" class="glass-purple"/>
<text x="421" y="285" font-family="monospace" font-size="26" font-weight="700" class="txt" text-anchor="middle">21</text>
<text x="421" y="300" font-family="monospace" font-size="8"  class="muted" text-anchor="middle" letter-spacing="2">REPOSITORIOS</text>
<rect x="330" y="320" width="182" height="2" rx="1" fill="url(#statLine2)" opacity=".7"/>

<rect x="564" y="248" width="272" height="90" rx="12" fill="rgba(86,225,232,.05)" stroke="rgba(86,225,232,.25)" stroke-width="1"/>
<text x="700" y="285" font-family="monospace" font-size="26" font-weight="700" class="txt" text-anchor="middle">4</text>
<text x="700" y="300" font-family="monospace" font-size="8"  class="muted" text-anchor="middle" letter-spacing="2">LONGEST STREAK</text>
<rect x="600" y="320" width="200" height="2" rx="1" fill="url(#statLine3)" opacity=".7"/>

<!-- ═══════════════════════════════════
     TECH STACK + ACTIVITY
═══════════════════════════════════ -->

<!-- Tech Stack card -->
<rect x="24" y="356" width="390" height="330" rx="12" class="glass"/>
<text x="40" y="380" font-family="monospace" font-size="9" class="sec" letter-spacing="2">⚙ TECH STACK</text>
<line x1="40" y1="388" x2="398" y2="388" stroke="rgba(63,169,245,.15)" stroke-width="1"/>

<!-- Languages -->
<text x="40" y="406" font-family="monospace" font-size="8" class="muted" letter-spacing="1.5">LANGUAGES</text>
<!-- Python -->
<rect x="40"  y="412" width="56" height="20" rx="10" class="tag"/><text x="54"  y="426" font-family="monospace" font-size="9" class="tag-txt">Python</text>
<!-- JS -->
<rect x="102" y="412" width="76" height="20" rx="10" class="tag"/><text x="114" y="426" font-family="monospace" font-size="9" class="tag-txt">JavaScript</text>
<!-- TS -->
<rect x="184" y="412" width="78" height="20" rx="10" class="tag"/><text x="196" y="426" font-family="monospace" font-size="9" class="tag-txt">TypeScript</text>
<!-- HTML -->
<rect x="268" y="412" width="46" height="20" rx="10" class="tag"/><text x="280" y="426" font-family="monospace" font-size="9" class="tag-txt">HTML</text>
<!-- CSS -->
<rect x="320" y="412" width="40" height="20" rx="10" class="tag"/><text x="332" y="426" font-family="monospace" font-size="9" class="tag-txt">CSS</text>

<!-- Frontend -->
<text x="40" y="450" font-family="monospace" font-size="8" class="muted" letter-spacing="1.5">FRONTEND</text>
<rect x="40"  y="456" width="46" height="20" rx="10" class="tag-purple"/><text x="52"  y="470" font-family="monospace" font-size="9" class="tag-purple-txt">React</text>
<rect x="92"  y="456" width="56" height="20" rx="10" class="tag-purple"/><text x="100" y="470" font-family="monospace" font-size="9" class="tag-purple-txt">Next.js</text>
<rect x="154" y="456" width="62" height="20" rx="10" class="tag-purple"/><text x="162" y="470" font-family="monospace" font-size="9" class="tag-purple-txt">Tailwind</text>

<!-- Backend -->
<text x="40" y="494" font-family="monospace" font-size="8" class="muted" letter-spacing="1.5">BACKEND</text>
<rect x="40"  y="500" width="58" height="20" rx="10" class="tag"/><text x="50"  y="514" font-family="monospace" font-size="9" class="tag-txt">Node.js</text>
<rect x="104" y="500" width="58" height="20" rx="10" class="tag"/><text x="114" y="514" font-family="monospace" font-size="9" class="tag-txt">Express</text>
<rect x="168" y="500" width="50" height="20" rx="10" class="tag"/><text x="178" y="514" font-family="monospace" font-size="9" class="tag-txt">Prisma</text>

<!-- Databases -->
<text x="40" y="538" font-family="monospace" font-size="8" class="muted" letter-spacing="1.5">DATABASES</text>
<rect x="40"  y="544" width="64" height="20" rx="10" class="tag-cyan"/><text x="50"  y="558" font-family="monospace" font-size="9" class="tag-cyan-txt">MongoDB</text>
<rect x="110" y="544" width="46" height="20" rx="10" class="tag-cyan"/><text x="120" y="558" font-family="monospace" font-size="9" class="tag-cyan-txt">MySQL</text>
<rect x="162" y="544" width="72" height="20" rx="10" class="tag-cyan"/><text x="170" y="558" font-family="monospace" font-size="9" class="tag-cyan-txt">PostgreSQL</text>
<rect x="240" y="544" width="66" height="20" rx="10" class="tag-cyan"/><text x="248" y="558" font-family="monospace" font-size="9" class="tag-cyan-txt">Supabase</text>

<!-- Tools -->
<text x="40" y="582" font-family="monospace" font-size="8" class="muted" letter-spacing="1.5">TOOLS</text>
<rect x="40"  y="588" width="30" height="20" rx="10" class="tag"/><text x="50"  y="602" font-family="monospace" font-size="9" class="tag-txt">Git</text>
<rect x="76"  y="588" width="54" height="20" rx="10" class="tag"/><text x="84"  y="602" font-family="monospace" font-size="9" class="tag-txt">GitHub</text>
<rect x="136" y="588" width="60" height="20" rx="10" class="tag"/><text x="144" y="602" font-family="monospace" font-size="9" class="tag-txt">VS Code</text>
<rect x="202" y="588" width="50" height="20" rx="10" class="tag"/><text x="210" y="602" font-family="monospace" font-size="9" class="tag-txt">Figma</text>

<!-- Skill icons row (logos via unicode approximation) -->
<text x="40"  y="656" font-family="monospace" font-size="9" fill="#3FA9F5">TS</text>
<text x="64"  y="656" font-family="monospace" font-size="9" fill="#F7DF1E">JS</text>
<text x="88"  y="656" font-family="monospace" font-size="9" fill="#3FA9F5">PY</text>
<text x="112" y="656" font-family="monospace" font-size="9" fill="#61DAFB">RE</text>
<text x="136" y="656" font-family="monospace" font-size="9" fill="white">NX</text>
<text x="160" y="656" font-family="monospace" font-size="9" fill="#68A063">ND</text>
<text x="184" y="656" font-family="monospace" font-size="9" fill="#47A248">MG</text>
<text x="208" y="656" font-family="monospace" font-size="9" fill="#4479A1">SQ</text>
<text x="232" y="656" font-family="monospace" font-size="9" fill="#3ECF8E">SB</text>
<text x="256" y="656" font-family="monospace" font-size="9" fill="#F05032">GT</text>
<text x="280" y="656" font-family="monospace" font-size="9" fill="#007ACC">VS</text>
<text x="304" y="656" font-family="monospace" font-size="9" fill="#F24E1E">FG</text>
<text x="328" y="656" font-family="monospace" font-size="9" fill="#38BDF8">TW</text>
<text x="352" y="656" font-family="monospace" font-size="9" fill="#5A67D8">PR</text>

<!-- Activity card -->
<rect x="434" y="356" width="402" height="330" rx="12" class="glass-purple"/>
<text x="450" y="380" font-family="monospace" font-size="9" class="sec" letter-spacing="2">📊 ACTIVIDAD</text>
<line x1="450" y1="388" x2="818" y2="388" stroke="rgba(92,88,237,.15)" stroke-width="1"/>

<!-- Bar chart -->
<text x="450" y="408" font-family="monospace" font-size="8" class="muted">commits / semana</text>

<!-- Bars -->
<rect x="470" y="453" width="26" height="30" rx="3" fill="url(#barGrad)" opacity=".7" class="bar" style="animation-delay:0s"/>
<rect x="508" y="438" width="26" height="45" rx="3" fill="url(#barGrad)" opacity=".8" class="bar" style="animation-delay:.15s"/>
<rect x="546" y="423" width="26" height="60" rx="3" fill="url(#barGrad)" opacity=".9" class="bar" style="animation-delay:.3s"/>
<rect x="584" y="445" width="26" height="38" rx="3" fill="url(#barGrad)" opacity=".75" class="bar" style="animation-delay:.45s"/>
<rect x="622" y="413" width="26" height="70" rx="3" fill="url(#barGrad)"            class="bar" style="animation-delay:.6s"/>
<rect x="660" y="430" width="26" height="53" rx="3" fill="url(#barGrad)" opacity=".85" class="bar" style="animation-delay:.75s"/>
<rect x="698" y="440" width="26" height="43" rx="3" fill="url(#barGrad)" opacity=".7" class="bar" style="animation-delay:.9s"/>

<!-- Day labels -->
<text x="478" y="498" font-family="monospace" font-size="9" class="muted" text-anchor="middle">L</text>
<text x="516" y="498" font-family="monospace" font-size="9" class="muted" text-anchor="middle">M</text>
<text x="554" y="498" font-family="monospace" font-size="9" class="muted" text-anchor="middle">X</text>
<text x="592" y="498" font-family="monospace" font-size="9" class="muted" text-anchor="middle">J</text>
<text x="630" y="498" font-family="monospace" font-size="9" class="muted" text-anchor="middle">V</text>
<text x="668" y="498" font-family="monospace" font-size="9" class="muted" text-anchor="middle">S</text>
<text x="706" y="498" font-family="monospace" font-size="9" class="muted" text-anchor="middle">D</text>

<!-- Streak info -->
<text x="450" y="528" font-family="monospace" font-size="11" class="muted">🔥 Racha actual: <tspan fill="#56E1E8" font-weight="700">4 días</tspan></text>
<text x="450" y="548" font-family="monospace" font-size="11" class="muted">⭐ Longest streak: <tspan fill="#3FA9F5" font-weight="700">4 días</tspan></text>
<text x="450" y="568" font-family="monospace" font-size="11" class="muted">📅 Desde: <tspan fill="#5C58ED">Oct 28, 2025</tspan></text>

<!-- Languages chart -->
<text x="450" y="598" font-family="monospace" font-size="8" class="muted" letter-spacing="1.5">TOP LANGUAGES</text>
<!-- Python bar -->
<text x="450" y="616" font-family="monospace" font-size="9" class="muted">Python</text>
<rect x="510" y="607" width="300" height="12" rx="6" fill="rgba(255,255,255,.05)"/>
<rect x="510" y="607" width="168" height="12" rx="6" fill="#3FA9F5" opacity=".8"/>
<text x="686" y="618" font-family="monospace" font-size="9" class="muted">56%</text>
<!-- JS bar -->
<text x="450" y="636" font-family="monospace" font-size="9" class="muted">JavaScript</text>
<rect x="510" y="627" width="300" height="12" rx="6" fill="rgba(255,255,255,.05)"/>
<rect x="510" y="627" width="99"  height="12" rx="6" fill="#5C58ED" opacity=".8"/>
<text x="616" y="638" font-family="monospace" font-size="9" class="muted">33%</text>
<!-- CSS bar -->
<text x="450" y="656" font-family="monospace" font-size="9" class="muted">CSS</text>
<rect x="510" y="647" width="300" height="12" rx="6" fill="rgba(255,255,255,.05)"/>
<rect x="510" y="647" width="33"  height="12" rx="6" fill="#56E1E8" opacity=".8"/>
<text x="550" y="658" font-family="monospace" font-size="9" class="muted">11%</text>

<!-- ═══════════════════════════════════
     CONNECT
═══════════════════════════════════ -->

<rect x="24" y="704" width="812" height="96" rx="12" class="glass"/>
<text x="40" y="726" font-family="monospace" font-size="9" class="sec" letter-spacing="2">🌐 CONECTEMOS</text>
<line x1="40" y1="734" x2="820" y2="734" stroke="rgba(63,169,245,.15)" stroke-width="1"/>

<!-- LinkedIn -->
<rect x="40"  y="746" width="130" height="34" rx="8" fill="rgba(63,169,245,.15)" stroke="rgba(63,169,245,.4)" stroke-width="1"/>
<text x="60"  y="760" font-family="monospace" font-size="10" fill="white">💼</text>
<text x="76"  y="760" font-family="monospace" font-size="10" fill="#3FA9F5">LinkedIn</text>
<text x="60"  y="773" font-family="monospace" font-size="8"  fill="#8b99ae">sarahi-cruz-aguirre</text>

<!-- Gmail -->
<rect x="184" y="746" width="200" height="34" rx="8" fill="rgba(92,88,237,.12)" stroke="rgba(92,88,237,.35)" stroke-width="1"/>
<text x="200" y="760" font-family="monospace" font-size="10" fill="white">📧</text>
<text x="216" y="760" font-family="monospace" font-size="10" fill="#5C58ED">Gmail</text>
<text x="200" y="773" font-family="monospace" font-size="8"  fill="#8b99ae">park02697@gmail.com</text>

<!-- GitHub -->
<rect x="398" y="746" width="170" height="34" rx="8" fill="rgba(86,225,232,.08)" stroke="rgba(86,225,232,.3)" stroke-width="1"/>
<text x="414" y="760" font-family="monospace" font-size="10" fill="white">🐙</text>
<text x="430" y="760" font-family="monospace" font-size="10" fill="#56E1E8">GitHub</text>
<text x="414" y="773" font-family="monospace" font-size="8"  fill="#8b99ae">@SarahiCruzAguirre</text>

<!-- 3D Spline -->
<rect x="582" y="746" width="254" height="34" rx="8" fill="rgba(92,88,237,.15)" stroke="rgba(92,88,237,.45)" stroke-width="1"/>
<text x="598" y="760" font-family="monospace" font-size="10" fill="white">🌐</text>
<text x="614" y="760" font-family="monospace" font-size="10" fill="#5C58ED">3D Scene · Spline</text>
<text x="598" y="773" font-family="monospace" font-size="8"  fill="#8b99ae">orbitalbluestar.spline.design</text>

<!-- Quote footer -->
<text x="430" y="840" font-family="monospace" font-size="11" fill="rgba(139,153,174,.4)" text-anchor="middle">// turning caffeine into code, one commit at a time ☕</text>

<!-- Profile views counter -->
<text x="430" y="870" font-family="monospace" font-size="9" fill="rgba(92,88,237,.5)" text-anchor="middle">✦ SarahiCruzAguirre ✦</text>

</g>
</svg>
